<svg id="Calque_1" data-name="Calque 1" xmlns="http://www.w3.org/2000/svg" viewBox="0 0 409.84 251.7"><title>LOGO</title><path d="M519.48,423.39H446.17V178.72h73.31Z" transform="translate(-215.75 -177.28)"/><path d="M242.28,177.51c28.66,0,52-.78,75.33.53,6,.34,14,5.91,17.11,11.36q42.22,74.88,82.55,150.84c2.9,5.46,2.89,14.92.12,20.49-11,22.1-23.6,43.4-37.42,68.24Z" transform="translate(-215.75 -177.28)"/><path d="M267.18,324.53a51.44,51.44,0,0,1,51.63,50.67c.45,29.33-22.59,52.91-51.53,52.75s-51.21-22.1-51.53-50.54C215.41,347.58,237.7,324.66,267.18,324.53Z" transform="translate(-215.75 -177.28)"/><path d="M550.69,309.37c39.34-3.32,73.39,21.89,74.78,54.9,1.42,33.87-30.09,59.62-74.78,59.74Z" transform="translate(-215.75 -177.28)"/><path d="M550.26,295.36V178.47c26.7-2.28,48.63,6.12,64.5,27.28,12.34,16.46,14.69,34.94,4.17,53.67C604.11,285.79,579.32,292.69,550.26,295.36Z" transform="translate(-215.75 -177.28)"/></svg>